<mxfile host="app.diagrams.net" agent="Mozilla/5.0 (Windows NT 10.0; Win64; x64) AppleWebKit/537.36 (KHTML, like Gecko) Chrome/137.0.0.0 Safari/537.36 Edg/137.0.0.0" version="27.1.4">
  <diagram name="Page-1" id="bsXwj28w_MeKT_kwM-F2">
    <mxGraphModel dx="1418" dy="1894" grid="1" gridSize="10" guides="1" tooltips="1" connect="1" arrows="1" fold="1" page="1" pageScale="1" pageWidth="850" pageHeight="1100" math="0" shadow="0">
      <root>
        <mxCell id="0" />
        <mxCell id="1" parent="0" />
        <mxCell id="INxaInNsMyG7K104eZkQ-15" value="" style="rounded=0;whiteSpace=wrap;html=1;" vertex="1" parent="1">
          <mxGeometry x="55" y="-400" width="740" height="440" as="geometry" />
        </mxCell>
        <mxCell id="INxaInNsMyG7K104eZkQ-28" value="" style="rounded=0;whiteSpace=wrap;html=1;" vertex="1" parent="1">
          <mxGeometry x="580" y="-380" width="200" height="320" as="geometry" />
        </mxCell>
        <mxCell id="INxaInNsMyG7K104eZkQ-27" value="" style="rounded=0;whiteSpace=wrap;html=1;" vertex="1" parent="1">
          <mxGeometry x="330" y="-380" width="200" height="320" as="geometry" />
        </mxCell>
        <mxCell id="INxaInNsMyG7K104eZkQ-26" value="" style="rounded=0;whiteSpace=wrap;html=1;" vertex="1" parent="1">
          <mxGeometry x="70" y="-380" width="200" height="320" as="geometry" />
        </mxCell>
        <mxCell id="INxaInNsMyG7K104eZkQ-2" value="" style="rounded=0;whiteSpace=wrap;html=1;" vertex="1" parent="1">
          <mxGeometry x="60" y="-1010" width="740" height="400" as="geometry" />
        </mxCell>
        <mxCell id="INxaInNsMyG7K104eZkQ-3" value="&lt;font style=&quot;font-size: 21px;&quot;&gt;Monolito&lt;/font&gt;" style="text;html=1;align=center;verticalAlign=middle;whiteSpace=wrap;rounded=0;" vertex="1" parent="1">
          <mxGeometry x="60" y="-1060" width="100" height="40" as="geometry" />
        </mxCell>
        <mxCell id="INxaInNsMyG7K104eZkQ-4" value="" style="shape=datastore;whiteSpace=wrap;html=1;" vertex="1" parent="1">
          <mxGeometry x="650" y="-960" width="90" height="110" as="geometry" />
        </mxCell>
        <mxCell id="INxaInNsMyG7K104eZkQ-7" value="" style="html=1;verticalLabelPosition=bottom;align=center;labelBackgroundColor=#ffffff;verticalAlign=top;strokeWidth=2;strokeColor=#0080F0;shadow=0;dashed=0;shape=mxgraph.ios7.icons.window;" vertex="1" parent="1">
          <mxGeometry x="100" y="-960" width="100" height="110" as="geometry" />
        </mxCell>
        <mxCell id="INxaInNsMyG7K104eZkQ-8" value="" style="html=1;verticalLabelPosition=bottom;align=center;labelBackgroundColor=#ffffff;verticalAlign=top;strokeWidth=2;strokeColor=#0080F0;shadow=0;dashed=0;shape=mxgraph.ios7.icons.window;" vertex="1" parent="1">
          <mxGeometry x="100" y="-820" width="100" height="110" as="geometry" />
        </mxCell>
        <mxCell id="INxaInNsMyG7K104eZkQ-9" value="" style="shape=datastore;whiteSpace=wrap;html=1;" vertex="1" parent="1">
          <mxGeometry x="650" y="-820" width="90" height="110" as="geometry" />
        </mxCell>
        <mxCell id="INxaInNsMyG7K104eZkQ-10" value="" style="sketch=0;outlineConnect=0;fontColor=#232F3E;gradientColor=none;fillColor=#232F3D;strokeColor=none;dashed=0;verticalLabelPosition=bottom;verticalAlign=top;align=center;html=1;fontSize=12;fontStyle=0;aspect=fixed;pointerEvents=1;shape=mxgraph.aws4.source_code;" vertex="1" parent="1">
          <mxGeometry x="386.5" y="-950" width="77" height="105.37" as="geometry" />
        </mxCell>
        <mxCell id="INxaInNsMyG7K104eZkQ-11" value="" style="sketch=0;aspect=fixed;pointerEvents=1;shadow=0;dashed=0;html=1;strokeColor=none;labelPosition=center;verticalLabelPosition=bottom;verticalAlign=top;align=center;fillColor=#00188D;shape=mxgraph.mscae.enterprise.code_file" vertex="1" parent="1">
          <mxGeometry x="385.5" y="-800.82" width="89" height="90.82" as="geometry" />
        </mxCell>
        <mxCell id="INxaInNsMyG7K104eZkQ-12" value="&lt;font style=&quot;font-size: 21px;&quot;&gt;UI&lt;/font&gt;" style="text;html=1;align=center;verticalAlign=middle;whiteSpace=wrap;rounded=0;" vertex="1" parent="1">
          <mxGeometry x="100" y="-670" width="100" height="30" as="geometry" />
        </mxCell>
        <mxCell id="INxaInNsMyG7K104eZkQ-13" value="&lt;font style=&quot;font-size: 21px;&quot;&gt;Business Logic&lt;/font&gt;" style="text;html=1;align=center;verticalAlign=middle;whiteSpace=wrap;rounded=0;" vertex="1" parent="1">
          <mxGeometry x="380" y="-680" width="100" height="40" as="geometry" />
        </mxCell>
        <mxCell id="INxaInNsMyG7K104eZkQ-14" value="&lt;span style=&quot;font-size: 21px;&quot;&gt;Database&lt;/span&gt;" style="text;html=1;align=center;verticalAlign=middle;whiteSpace=wrap;rounded=0;" vertex="1" parent="1">
          <mxGeometry x="645" y="-680" width="100" height="40" as="geometry" />
        </mxCell>
        <mxCell id="INxaInNsMyG7K104eZkQ-16" value="&lt;font style=&quot;font-size: 21px;&quot;&gt;Arquitetura em camads&lt;/font&gt;" style="text;html=1;align=center;verticalAlign=middle;whiteSpace=wrap;rounded=0;" vertex="1" parent="1">
          <mxGeometry x="47.5" y="-450" width="245" height="40" as="geometry" />
        </mxCell>
        <mxCell id="INxaInNsMyG7K104eZkQ-17" value="" style="shape=datastore;whiteSpace=wrap;html=1;" vertex="1" parent="1">
          <mxGeometry x="635" y="-350" width="90" height="110" as="geometry" />
        </mxCell>
        <mxCell id="INxaInNsMyG7K104eZkQ-18" value="" style="html=1;verticalLabelPosition=bottom;align=center;labelBackgroundColor=#ffffff;verticalAlign=top;strokeWidth=2;strokeColor=#0080F0;shadow=0;dashed=0;shape=mxgraph.ios7.icons.window;" vertex="1" parent="1">
          <mxGeometry x="120" y="-360" width="100" height="110" as="geometry" />
        </mxCell>
        <mxCell id="INxaInNsMyG7K104eZkQ-19" value="" style="html=1;verticalLabelPosition=bottom;align=center;labelBackgroundColor=#ffffff;verticalAlign=top;strokeWidth=2;strokeColor=#0080F0;shadow=0;dashed=0;shape=mxgraph.ios7.icons.window;" vertex="1" parent="1">
          <mxGeometry x="120" y="-210" width="100" height="110" as="geometry" />
        </mxCell>
        <mxCell id="INxaInNsMyG7K104eZkQ-20" value="" style="shape=datastore;whiteSpace=wrap;html=1;" vertex="1" parent="1">
          <mxGeometry x="635" y="-210" width="90" height="110" as="geometry" />
        </mxCell>
        <mxCell id="INxaInNsMyG7K104eZkQ-21" value="" style="sketch=0;outlineConnect=0;fontColor=#232F3E;gradientColor=none;fillColor=#232F3D;strokeColor=none;dashed=0;verticalLabelPosition=bottom;verticalAlign=top;align=center;html=1;fontSize=12;fontStyle=0;aspect=fixed;pointerEvents=1;shape=mxgraph.aws4.source_code;" vertex="1" parent="1">
          <mxGeometry x="381.5" y="-340" width="77" height="105.37" as="geometry" />
        </mxCell>
        <mxCell id="INxaInNsMyG7K104eZkQ-22" value="" style="sketch=0;aspect=fixed;pointerEvents=1;shadow=0;dashed=0;html=1;strokeColor=none;labelPosition=center;verticalLabelPosition=bottom;verticalAlign=top;align=center;fillColor=#00188D;shape=mxgraph.mscae.enterprise.code_file" vertex="1" parent="1">
          <mxGeometry x="381.5" y="-190.82000000000005" width="89" height="90.82" as="geometry" />
        </mxCell>
        <mxCell id="INxaInNsMyG7K104eZkQ-23" value="&lt;font style=&quot;font-size: 21px;&quot;&gt;UI&lt;/font&gt;" style="text;html=1;align=center;verticalAlign=middle;whiteSpace=wrap;rounded=0;" vertex="1" parent="1">
          <mxGeometry x="120" y="-40" width="100" height="30" as="geometry" />
        </mxCell>
        <mxCell id="INxaInNsMyG7K104eZkQ-24" value="&lt;font style=&quot;font-size: 21px;&quot;&gt;Business Logic&lt;/font&gt;" style="text;html=1;align=center;verticalAlign=middle;whiteSpace=wrap;rounded=0;" vertex="1" parent="1">
          <mxGeometry x="375" y="-50" width="100" height="40" as="geometry" />
        </mxCell>
        <mxCell id="INxaInNsMyG7K104eZkQ-25" value="&lt;span style=&quot;font-size: 21px;&quot;&gt;Database&lt;/span&gt;" style="text;html=1;align=center;verticalAlign=middle;whiteSpace=wrap;rounded=0;" vertex="1" parent="1">
          <mxGeometry x="630" y="-50" width="100" height="40" as="geometry" />
        </mxCell>
        <mxCell id="INxaInNsMyG7K104eZkQ-31" value="" style="endArrow=classic;startArrow=classic;html=1;rounded=0;exitX=1;exitY=0.5;exitDx=0;exitDy=0;entryX=0;entryY=0.5;entryDx=0;entryDy=0;" edge="1" parent="1" source="INxaInNsMyG7K104eZkQ-26" target="INxaInNsMyG7K104eZkQ-27">
          <mxGeometry width="50" height="50" relative="1" as="geometry">
            <mxPoint x="400" y="-110" as="sourcePoint" />
            <mxPoint x="450" y="-160" as="targetPoint" />
          </mxGeometry>
        </mxCell>
        <mxCell id="INxaInNsMyG7K104eZkQ-33" value="" style="endArrow=classic;startArrow=classic;html=1;rounded=0;entryX=0;entryY=0.5;entryDx=0;entryDy=0;exitX=1;exitY=0.5;exitDx=0;exitDy=0;" edge="1" parent="1" source="INxaInNsMyG7K104eZkQ-27" target="INxaInNsMyG7K104eZkQ-28">
          <mxGeometry width="50" height="50" relative="1" as="geometry">
            <mxPoint x="400" y="-110" as="sourcePoint" />
            <mxPoint x="450" y="-160" as="targetPoint" />
          </mxGeometry>
        </mxCell>
        <mxCell id="INxaInNsMyG7K104eZkQ-35" value="" style="sketch=0;pointerEvents=1;shadow=0;dashed=0;html=1;strokeColor=none;fillColor=#505050;labelPosition=center;verticalLabelPosition=bottom;verticalAlign=top;outlineConnect=0;align=center;shape=mxgraph.office.devices.laptop;" vertex="1" parent="1">
          <mxGeometry x="40" y="480" width="119" height="100" as="geometry" />
        </mxCell>
        <mxCell id="INxaInNsMyG7K104eZkQ-36" value="" style="verticalLabelPosition=bottom;html=1;verticalAlign=top;align=center;strokeColor=none;fillColor=#00BEF2;shape=mxgraph.azure.mobile_services;pointerEvents=1;" vertex="1" parent="1">
          <mxGeometry x="70" y="300" width="80" height="120" as="geometry" />
        </mxCell>
        <mxCell id="INxaInNsMyG7K104eZkQ-37" value="" style="rounded=1;whiteSpace=wrap;html=1;" vertex="1" parent="1">
          <mxGeometry x="480" y="210" width="470" height="140" as="geometry" />
        </mxCell>
        <mxCell id="INxaInNsMyG7K104eZkQ-40" value="API" style="ellipse;whiteSpace=wrap;html=1;aspect=fixed;" vertex="1" parent="1">
          <mxGeometry x="520" y="240" width="80" height="80" as="geometry" />
        </mxCell>
        <mxCell id="INxaInNsMyG7K104eZkQ-41" value="" style="rounded=0;whiteSpace=wrap;html=1;" vertex="1" parent="1">
          <mxGeometry x="626.88" y="233.66" width="126.25" height="90" as="geometry" />
        </mxCell>
        <mxCell id="INxaInNsMyG7K104eZkQ-42" value="" style="sketch=0;outlineConnect=0;fontColor=#232F3E;gradientColor=none;fillColor=#232F3D;strokeColor=none;dashed=0;verticalLabelPosition=bottom;verticalAlign=top;align=center;html=1;fontSize=12;fontStyle=0;aspect=fixed;pointerEvents=1;shape=mxgraph.aws4.source_code;" vertex="1" parent="1">
          <mxGeometry x="667.1" y="248.66" width="45.8" height="62.68" as="geometry" />
        </mxCell>
        <mxCell id="INxaInNsMyG7K104eZkQ-46" value="" style="rounded=0;whiteSpace=wrap;html=1;" vertex="1" parent="1">
          <mxGeometry x="780" y="233.66" width="126.25" height="90" as="geometry" />
        </mxCell>
        <mxCell id="INxaInNsMyG7K104eZkQ-47" value="" style="shape=datastore;whiteSpace=wrap;html=1;" vertex="1" parent="1">
          <mxGeometry x="818.13" y="248.66" width="50" height="60" as="geometry" />
        </mxCell>
        <mxCell id="INxaInNsMyG7K104eZkQ-48" value="" style="rounded=1;whiteSpace=wrap;html=1;" vertex="1" parent="1">
          <mxGeometry x="480" y="400" width="470" height="140" as="geometry" />
        </mxCell>
        <mxCell id="INxaInNsMyG7K104eZkQ-49" value="API" style="ellipse;whiteSpace=wrap;html=1;aspect=fixed;" vertex="1" parent="1">
          <mxGeometry x="520" y="430" width="80" height="80" as="geometry" />
        </mxCell>
        <mxCell id="INxaInNsMyG7K104eZkQ-50" value="" style="rounded=0;whiteSpace=wrap;html=1;" vertex="1" parent="1">
          <mxGeometry x="626.88" y="423.65999999999997" width="126.25" height="90" as="geometry" />
        </mxCell>
        <mxCell id="INxaInNsMyG7K104eZkQ-51" value="" style="sketch=0;outlineConnect=0;fontColor=#232F3E;gradientColor=none;fillColor=#232F3D;strokeColor=none;dashed=0;verticalLabelPosition=bottom;verticalAlign=top;align=center;html=1;fontSize=12;fontStyle=0;aspect=fixed;pointerEvents=1;shape=mxgraph.aws4.source_code;" vertex="1" parent="1">
          <mxGeometry x="667.1" y="438.65999999999997" width="45.8" height="62.68" as="geometry" />
        </mxCell>
        <mxCell id="INxaInNsMyG7K104eZkQ-52" value="" style="rounded=0;whiteSpace=wrap;html=1;" vertex="1" parent="1">
          <mxGeometry x="780" y="423.65999999999997" width="126.25" height="90" as="geometry" />
        </mxCell>
        <mxCell id="INxaInNsMyG7K104eZkQ-53" value="" style="shape=datastore;whiteSpace=wrap;html=1;" vertex="1" parent="1">
          <mxGeometry x="818.13" y="438.65999999999997" width="50" height="60" as="geometry" />
        </mxCell>
        <mxCell id="INxaInNsMyG7K104eZkQ-54" value="" style="rounded=1;whiteSpace=wrap;html=1;" vertex="1" parent="1">
          <mxGeometry x="480" y="600" width="470" height="140" as="geometry" />
        </mxCell>
        <mxCell id="INxaInNsMyG7K104eZkQ-55" value="API" style="ellipse;whiteSpace=wrap;html=1;aspect=fixed;" vertex="1" parent="1">
          <mxGeometry x="520" y="630" width="80" height="80" as="geometry" />
        </mxCell>
        <mxCell id="INxaInNsMyG7K104eZkQ-56" value="" style="rounded=0;whiteSpace=wrap;html=1;" vertex="1" parent="1">
          <mxGeometry x="626.87" y="625" width="126.25" height="90" as="geometry" />
        </mxCell>
        <mxCell id="INxaInNsMyG7K104eZkQ-57" value="" style="sketch=0;outlineConnect=0;fontColor=#232F3E;gradientColor=none;fillColor=#232F3D;strokeColor=none;dashed=0;verticalLabelPosition=bottom;verticalAlign=top;align=center;html=1;fontSize=12;fontStyle=0;aspect=fixed;pointerEvents=1;shape=mxgraph.aws4.source_code;" vertex="1" parent="1">
          <mxGeometry x="667.1" y="638.66" width="45.8" height="62.68" as="geometry" />
        </mxCell>
        <mxCell id="INxaInNsMyG7K104eZkQ-58" value="" style="rounded=0;whiteSpace=wrap;html=1;" vertex="1" parent="1">
          <mxGeometry x="780" y="625" width="126.25" height="90" as="geometry" />
        </mxCell>
        <mxCell id="INxaInNsMyG7K104eZkQ-59" value="" style="shape=datastore;whiteSpace=wrap;html=1;" vertex="1" parent="1">
          <mxGeometry x="818.13" y="638.66" width="50" height="60" as="geometry" />
        </mxCell>
        <mxCell id="INxaInNsMyG7K104eZkQ-60" value="" style="endArrow=none;html=1;rounded=0;" edge="1" parent="1">
          <mxGeometry width="50" height="50" relative="1" as="geometry">
            <mxPoint x="320" y="670" as="sourcePoint" />
            <mxPoint x="320" y="280" as="targetPoint" />
          </mxGeometry>
        </mxCell>
        <mxCell id="INxaInNsMyG7K104eZkQ-61" value="" style="endArrow=classic;html=1;rounded=0;" edge="1" parent="1" target="INxaInNsMyG7K104eZkQ-54">
          <mxGeometry width="50" height="50" relative="1" as="geometry">
            <mxPoint x="320" y="670" as="sourcePoint" />
            <mxPoint x="450" y="380" as="targetPoint" />
          </mxGeometry>
        </mxCell>
        <mxCell id="INxaInNsMyG7K104eZkQ-62" value="" style="endArrow=classic;html=1;rounded=0;entryX=0;entryY=0.5;entryDx=0;entryDy=0;" edge="1" parent="1" target="INxaInNsMyG7K104eZkQ-37">
          <mxGeometry width="50" height="50" relative="1" as="geometry">
            <mxPoint x="320" y="280" as="sourcePoint" />
            <mxPoint x="450" y="380" as="targetPoint" />
          </mxGeometry>
        </mxCell>
        <mxCell id="INxaInNsMyG7K104eZkQ-63" value="" style="endArrow=classic;html=1;rounded=0;entryX=1;entryY=0.5;entryDx=0;entryDy=0;entryPerimeter=0;" edge="1" parent="1" target="INxaInNsMyG7K104eZkQ-36">
          <mxGeometry width="50" height="50" relative="1" as="geometry">
            <mxPoint x="320" y="360" as="sourcePoint" />
            <mxPoint x="450" y="380" as="targetPoint" />
          </mxGeometry>
        </mxCell>
        <mxCell id="INxaInNsMyG7K104eZkQ-64" value="" style="endArrow=classic;html=1;rounded=0;" edge="1" parent="1" target="INxaInNsMyG7K104eZkQ-35">
          <mxGeometry width="50" height="50" relative="1" as="geometry">
            <mxPoint x="320" y="530" as="sourcePoint" />
            <mxPoint x="450" y="380" as="targetPoint" />
          </mxGeometry>
        </mxCell>
        <mxCell id="INxaInNsMyG7K104eZkQ-65" value="" style="endArrow=classic;html=1;rounded=0;entryX=0;entryY=0.5;entryDx=0;entryDy=0;" edge="1" parent="1" target="INxaInNsMyG7K104eZkQ-48">
          <mxGeometry width="50" height="50" relative="1" as="geometry">
            <mxPoint x="320" y="470" as="sourcePoint" />
            <mxPoint x="450" y="380" as="targetPoint" />
          </mxGeometry>
        </mxCell>
        <mxCell id="INxaInNsMyG7K104eZkQ-66" value="&lt;font style=&quot;font-size: 21px;&quot;&gt;Microsserviços&lt;/font&gt;" style="text;html=1;align=center;verticalAlign=middle;whiteSpace=wrap;rounded=0;" vertex="1" parent="1">
          <mxGeometry x="55" y="140" width="245" height="40" as="geometry" />
        </mxCell>
        <mxCell id="INxaInNsMyG7K104eZkQ-67" value="" style="verticalLabelPosition=bottom;sketch=0;html=1;fillColor=#282828;strokeColor=none;verticalAlign=top;pointerEvents=1;align=center;shape=mxgraph.cisco_safe.people_places_things_icons.icon9;" vertex="1" parent="1">
          <mxGeometry x="1040" y="238.34" width="90" height="73" as="geometry" />
        </mxCell>
        <mxCell id="INxaInNsMyG7K104eZkQ-68" value="" style="verticalLabelPosition=bottom;sketch=0;html=1;fillColor=#282828;strokeColor=none;verticalAlign=top;pointerEvents=1;align=center;shape=mxgraph.cisco_safe.people_places_things_icons.icon9;" vertex="1" parent="1">
          <mxGeometry x="1040" y="433.5" width="90" height="73" as="geometry" />
        </mxCell>
        <mxCell id="INxaInNsMyG7K104eZkQ-69" value="" style="verticalLabelPosition=bottom;sketch=0;html=1;fillColor=#282828;strokeColor=none;verticalAlign=top;pointerEvents=1;align=center;shape=mxgraph.cisco_safe.people_places_things_icons.icon9;" vertex="1" parent="1">
          <mxGeometry x="1040" y="637" width="90" height="73" as="geometry" />
        </mxCell>
        <mxCell id="INxaInNsMyG7K104eZkQ-70" value="&lt;font style=&quot;font-size: 21px;&quot;&gt;Time 1&lt;/font&gt;" style="text;html=1;align=center;verticalAlign=middle;whiteSpace=wrap;rounded=0;" vertex="1" parent="1">
          <mxGeometry x="1007.5" y="340" width="155" height="40" as="geometry" />
        </mxCell>
        <mxCell id="INxaInNsMyG7K104eZkQ-71" value="&lt;font style=&quot;font-size: 21px;&quot;&gt;Time 2&lt;/font&gt;" style="text;html=1;align=center;verticalAlign=middle;whiteSpace=wrap;rounded=0;" vertex="1" parent="1">
          <mxGeometry x="1007.5" y="550" width="155" height="40" as="geometry" />
        </mxCell>
        <mxCell id="INxaInNsMyG7K104eZkQ-72" value="&lt;font style=&quot;font-size: 21px;&quot;&gt;Time 3&lt;/font&gt;" style="text;html=1;align=center;verticalAlign=middle;whiteSpace=wrap;rounded=0;" vertex="1" parent="1">
          <mxGeometry x="1007.5" y="740" width="155" height="40" as="geometry" />
        </mxCell>
        <mxCell id="INxaInNsMyG7K104eZkQ-73" value="Cloud" style="html=1;whiteSpace=wrap;strokeColor=none;fillColor=#0079D6;labelPosition=center;verticalLabelPosition=middle;verticalAlign=top;align=center;fontSize=12;outlineConnect=0;spacingTop=-6;fontColor=#FFFFFF;sketch=0;shape=mxgraph.sitemap.cloud;" vertex="1" parent="1">
          <mxGeometry x="1420" y="418.66" width="140" height="100" as="geometry" />
        </mxCell>
        <mxCell id="INxaInNsMyG7K104eZkQ-74" value="" style="endArrow=classic;html=1;rounded=0;exitX=1;exitY=0.5;exitDx=0;exitDy=0;entryX=-0.022;entryY=0.5;entryDx=0;entryDy=0;entryPerimeter=0;" edge="1" parent="1" source="INxaInNsMyG7K104eZkQ-48" target="INxaInNsMyG7K104eZkQ-68">
          <mxGeometry width="50" height="50" relative="1" as="geometry">
            <mxPoint x="840" y="530" as="sourcePoint" />
            <mxPoint x="890" y="480" as="targetPoint" />
          </mxGeometry>
        </mxCell>
        <mxCell id="INxaInNsMyG7K104eZkQ-75" value="" style="endArrow=classic;html=1;rounded=0;exitX=1;exitY=0.5;exitDx=0;exitDy=0;entryX=-0.033;entryY=0.568;entryDx=0;entryDy=0;entryPerimeter=0;" edge="1" parent="1" source="INxaInNsMyG7K104eZkQ-37" target="INxaInNsMyG7K104eZkQ-67">
          <mxGeometry width="50" height="50" relative="1" as="geometry">
            <mxPoint x="990" y="330" as="sourcePoint" />
            <mxPoint x="1078" y="330" as="targetPoint" />
            <Array as="points" />
          </mxGeometry>
        </mxCell>
        <mxCell id="INxaInNsMyG7K104eZkQ-76" value="" style="endArrow=classic;html=1;rounded=0;exitX=1.004;exitY=0.55;exitDx=0;exitDy=0;entryX=-0.022;entryY=0.541;entryDx=0;entryDy=0;entryPerimeter=0;exitPerimeter=0;" edge="1" parent="1" source="INxaInNsMyG7K104eZkQ-54" target="INxaInNsMyG7K104eZkQ-69">
          <mxGeometry width="50" height="50" relative="1" as="geometry">
            <mxPoint x="970" y="680" as="sourcePoint" />
            <mxPoint x="1058" y="680" as="targetPoint" />
          </mxGeometry>
        </mxCell>
        <mxCell id="INxaInNsMyG7K104eZkQ-77" value="" style="endArrow=none;html=1;rounded=0;" edge="1" parent="1">
          <mxGeometry width="50" height="50" relative="1" as="geometry">
            <mxPoint x="1280" y="680" as="sourcePoint" />
            <mxPoint x="1280" y="280" as="targetPoint" />
            <Array as="points">
              <mxPoint x="1280" y="470" />
            </Array>
          </mxGeometry>
        </mxCell>
        <mxCell id="INxaInNsMyG7K104eZkQ-79" value="" style="endArrow=none;html=1;rounded=0;entryX=0.978;entryY=0.557;entryDx=0;entryDy=0;entryPerimeter=0;" edge="1" parent="1" target="INxaInNsMyG7K104eZkQ-67">
          <mxGeometry width="50" height="50" relative="1" as="geometry">
            <mxPoint x="1280" y="280" as="sourcePoint" />
            <mxPoint x="890" y="480" as="targetPoint" />
          </mxGeometry>
        </mxCell>
        <mxCell id="INxaInNsMyG7K104eZkQ-80" value="" style="endArrow=none;html=1;rounded=0;exitX=0.978;exitY=0.603;exitDx=0;exitDy=0;exitPerimeter=0;" edge="1" parent="1" source="INxaInNsMyG7K104eZkQ-69">
          <mxGeometry width="50" height="50" relative="1" as="geometry">
            <mxPoint x="840" y="530" as="sourcePoint" />
            <mxPoint x="1280" y="681" as="targetPoint" />
          </mxGeometry>
        </mxCell>
        <mxCell id="INxaInNsMyG7K104eZkQ-81" value="" style="endArrow=none;html=1;rounded=0;" edge="1" parent="1">
          <mxGeometry width="50" height="50" relative="1" as="geometry">
            <mxPoint x="1130" y="480" as="sourcePoint" />
            <mxPoint x="1280" y="479" as="targetPoint" />
          </mxGeometry>
        </mxCell>
        <mxCell id="INxaInNsMyG7K104eZkQ-82" value="" style="endArrow=classic;html=1;rounded=0;" edge="1" parent="1" target="INxaInNsMyG7K104eZkQ-73">
          <mxGeometry width="50" height="50" relative="1" as="geometry">
            <mxPoint x="1280" y="470" as="sourcePoint" />
            <mxPoint x="890" y="480" as="targetPoint" />
          </mxGeometry>
        </mxCell>
        <mxCell id="INxaInNsMyG7K104eZkQ-83" value="&lt;font style=&quot;font-size: 21px;&quot;&gt;Deploy&lt;/font&gt;" style="text;html=1;align=center;verticalAlign=middle;whiteSpace=wrap;rounded=0;" vertex="1" parent="1">
          <mxGeometry x="1300" y="418.66" width="95" height="40" as="geometry" />
        </mxCell>
        <mxCell id="INxaInNsMyG7K104eZkQ-84" value="&lt;font style=&quot;font-size: 21px;&quot;&gt;Produtos&lt;/font&gt;" style="text;html=1;align=center;verticalAlign=middle;whiteSpace=wrap;rounded=0;" vertex="1" parent="1">
          <mxGeometry x="482.5" y="560" width="155" height="40" as="geometry" />
        </mxCell>
        <mxCell id="INxaInNsMyG7K104eZkQ-85" value="&lt;font style=&quot;font-size: 21px;&quot;&gt;Pagamento&lt;/font&gt;" style="text;html=1;align=center;verticalAlign=middle;whiteSpace=wrap;rounded=0;" vertex="1" parent="1">
          <mxGeometry x="482.5" y="360" width="155" height="40" as="geometry" />
        </mxCell>
        <mxCell id="INxaInNsMyG7K104eZkQ-86" value="&lt;font style=&quot;font-size: 21px;&quot;&gt;Cadastro&lt;/font&gt;" style="text;html=1;align=center;verticalAlign=middle;whiteSpace=wrap;rounded=0;" vertex="1" parent="1">
          <mxGeometry x="491.56" y="170" width="136.88" height="40" as="geometry" />
        </mxCell>
      </root>
    </mxGraphModel>
  </diagram>
</mxfile>
